<?xml version="1.0" encoding="UTF-8"?><svg id="Capa_2" xmlns="http://www.w3.org/2000/svg" viewBox="0 0 649.5 649.51"><defs><style>.cls-1{fill:#2b3036;}</style></defs><path class="cls-1" d="M286.65,45.64h0m-82.01,39.8c-33.97,126.85-27.68,221.7,18.76,288.38,44.69,64.17,123.57,96.71,234.44,96.71,29.04,0,60.78-2.24,94.94-6.69-37.17,39.25-75.3,70.48-113.94,93.26-49.62,29.26-99.16,44.09-147.25,44.09-29.37,0-57.91-5.6-84.82-16.63-25.78-10.57-49.66-25.93-70.99-45.65-42.5-39.3-71.92-93.23-82.82-151.86-5.8-31.19-6.18-62.59-1.12-93.33,5.34-32.45,16.68-63.54,33.7-92.38,18.55-31.43,43.83-60.11,75.13-85.26,13.53-10.86,28.2-21.09,43.97-30.63m432.67,363.91h0M272.2,0c-.95,0-1.94,.17-2.92,.55C-167.93,168.99-8.03,649.51,291.58,649.51c107.32,0,232.56-61.64,354.72-221.37,8.61-11.26-1.39-26.49-15.03-26.49-1.25,0-2.54,.13-3.84,.4-64.55,13.48-121.05,20.16-169.6,20.16-223.02,0-278.49-140.98-178.27-412.05C281.47,4.99,277.31,0,272.2,0h0Z"/></svg>